<?xml version="1.0" encoding="UTF-8" standalone="no"?>
<!-- Created with Inkscape (http://www.inkscape.org/) -->

<svg
   width="200"
   height="200"
   viewBox="0 0 52.916665 52.916666"
   version="1.1"
   id="svg5"
   inkscape:export-filename="thumbs-up-vector.svg"
   inkscape:export-xdpi="96"
   inkscape:export-ydpi="96"
   xml:space="preserve"
   xmlns:inkscape="http://www.inkscape.org/namespaces/inkscape"
   xmlns:sodipodi="http://sodipodi.sourceforge.net/DTD/sodipodi-0.dtd"
   xmlns="http://www.w3.org/2000/svg"
   xmlns:svg="http://www.w3.org/2000/svg"><sodipodi:namedview
     id="namedview7"
     pagecolor="#ffffff"
     bordercolor="#111111"
     borderopacity="1"
     inkscape:showpageshadow="0"
     inkscape:pageopacity="0"
     inkscape:pagecheckerboard="1"
     inkscape:deskcolor="#d1d1d1"
     inkscape:document-units="px"
     showgrid="false" /><defs
     id="defs2" /><g
     inkscape:label="Camada 1"
     inkscape:groupmode="layer"
     id="layer1"><path
       style="display:inline;fill:#9500ff;fill-opacity:1;stroke:none;stroke-width:0;stroke-linecap:round;stroke-linejoin:round;stroke-dasharray:none;paint-order:stroke fill markers"
       d="m 4.15128,26.273827 10.35083,-1.576313 c 2.12447,-4.382017 8.391923,-8.18275 9.23182,-10.630582 0.839898,-2.447831 1.748452,-11.2600246 1.748452,-11.2600246 1.340123,-7.7894645 15.460277,1.5603864 7.83306,16.6452536 0,0 8.509873,-2.983575 12.169219,-1.188947 2.39766,1.408448 3.690603,6.729086 1.538636,8.360303 4.707983,2.846432 1.87884,10.055921 1.678512,9.963465 0.787337,5.091225 -0.449737,8.308785 -3.4969,9.791322 0.851847,2.163933 -0.130731,7.158022 -4.860696,6.474684 C 35.61425,52.169653 29.836006,52.102769 29.398911,52.113222 28.961815,52.123638 19.351348,52.315682 13.662853,46.378304 12.10252,44.749704 4.361094,45.539047 4.361094,45.539047 3.1191373,38.07669 2.5968894,31.312683 4.15128,26.273827 Z"
       id="path374"
       sodipodi:nodetypes="cczsccccczzcsc" /></g></svg>
